<svg width="24" height="24" viewBox="0 0 24 24" fill="none" xmlns="http://www.w3.org/2000/svg">
<path d="M16.0037 13.762C15.4613 14.291 14.8182 14.7072 14.1119 14.986C13.4056 15.2649 12.6503 15.4009 11.8904 15.386C11.4674 15.386 11.0422 15.386 10.6192 15.386C10.5492 15.3815 10.479 15.3929 10.4141 15.4195C10.3492 15.446 10.2912 15.487 10.2447 15.5392C9.29073 16.5372 8.32796 17.5287 7.38062 18.5223C7.2921 18.626 7.18214 18.7096 7.05821 18.7674C6.93428 18.8252 6.79929 18.8558 6.6624 18.8571C6.54787 18.8569 6.43455 18.8339 6.3291 18.7895C6.22364 18.7451 6.12819 18.6802 6.04834 18.5987C5.9685 18.5171 5.90587 18.4205 5.86415 18.3146C5.82242 18.2086 5.80244 18.0954 5.80538 17.9817C5.80538 17.1544 5.80538 16.3278 5.80538 15.502C5.80538 15.3444 5.76131 15.2831 5.60049 15.2525C3.25195 14.6528 1.81992 13.1317 1.12373 10.8753C1.01234 10.449 0.92336 10.0172 0.857147 9.58178L0.857147 8.38242C0.899619 8.00066 0.9733 7.62297 1.07746 7.25309C1.65248 5.17828 2.89064 3.6747 4.95277 2.89336C5.54554 2.67506 6.17343 2.56604 6.8056 2.57164C8.46456 2.57164 10.1257 2.57164 11.7869 2.57164C14.1046 2.56069 15.8384 3.58497 17.0281 5.50438C17.8105 6.79667 18.1347 8.312 17.949 9.80867C17.7633 11.3053 17.0784 12.6971 16.0037 13.762Z" fill="white"/>
<path d="M21.525 10.4645C20.9547 9.95245 20.2577 9.60311 19.5073 9.45187C19.4421 9.43872 19.3715 9.48807 19.3626 9.55401C19.2904 10.5978 18.9949 11.614 18.496 12.5342C17.157 14.9564 15.1268 16.28 12.3122 16.3146C12.0154 16.3146 11.7186 16.3146 11.4217 16.3146C11.179 16.3146 11.0707 16.5006 11.1942 16.7017C11.8789 17.8177 12.8366 18.5811 14.1474 18.8082C14.7145 18.8776 15.2858 18.9058 15.8569 18.8925C15.9226 18.8885 15.9884 18.8995 16.0492 18.9246C16.11 18.9497 16.1643 18.9883 16.2079 19.0374C16.5893 19.444 16.9793 19.842 17.365 20.2442C17.6618 20.5535 17.9565 20.8692 18.262 21.1742C18.3912 21.3221 18.5739 21.413 18.77 21.4267C18.9662 21.4405 19.1598 21.3762 19.3085 21.2477C19.3981 21.1663 19.468 21.0656 19.5127 20.9531C19.5574 20.8407 19.5757 20.7195 19.5663 20.5989C19.5663 20.0864 19.5663 19.5716 19.5663 19.0591C19.5663 18.8752 19.6161 18.8104 19.7981 18.7412C20.2474 18.5981 20.678 18.4021 21.0808 18.1572C23.6332 16.4054 23.8564 12.532 21.525 10.4645Z" fill="white"/>
</svg>
