<svg width="24" height="24" viewBox="0 0 24 24" fill="none" xmlns="http://www.w3.org/2000/svg">
<g clip-path="url(#clip0_141_45)">
<path fill-rule="evenodd" clip-rule="evenodd" d="M13.0895 4.25159C13.2318 5.92263 13.7842 8.96706 14.9347 8.3029C15.9115 7.73889 17.4324 7.01483 18.0042 7.98704C19.102 9.85377 19.9579 11.8953 20.0263 13.8472C20.1111 16.2728 19.1605 18.5811 17.4158 20.0534C15.329 21.814 13.6767 21.7692 12.5245 20.911C12.1494 20.6316 11.8257 20.2625 11.5574 19.8278C10.5507 18.1969 8.94875 17.6386 9.23282 19.534C9.38906 20.5764 9.52402 21.2249 8.7487 21.0043C5.7779 20.1587 4.07718 16.8241 3.97218 13.8189C3.8223 9.52709 8.41196 5.9078 10.6538 2.07893C11.2927 0.987795 12.3968 0.762011 12.7084 1.98742C12.8976 2.7315 13.03 3.55107 13.0895 4.25159Z" fill="white"/>
</g>
<defs>
<clipPath id="clip0_141_45">
<rect width="24" height="24" fill="white"/>
</clipPath>
</defs>
</svg>
