<svg width="24" height="24" viewBox="0 0 24 24" fill="none" xmlns="http://www.w3.org/2000/svg">
<g clip-path="url(#clip0_141_36)">
<path fill-rule="evenodd" clip-rule="evenodd" d="M12 10.2321C10.7665 10.2321 9.75 11.2486 9.75 12.4821V18.8571C9.75 20.0907 10.7665 21.1071 12 21.1071C13.2335 21.1071 14.25 20.0907 14.25 18.8571V12.4821C14.25 11.2486 13.2335 10.2321 12 10.2321ZM4.5 6.85714C3.26647 6.85714 2.25 7.87361 2.25 9.10714V18.8571C2.25 20.0907 3.26647 21.1071 4.5 21.1071C5.73353 21.1071 6.75 20.0907 6.75 18.8571V9.10714C6.75 7.87361 5.73353 6.85714 4.5 6.85714Z" fill="white"/>
<path d="M17.25 5.25C17.25 4.01648 18.2665 3 19.5 3C20.7335 3 21.75 4.01648 21.75 5.25V18.75C21.75 19.9835 20.7335 21 19.5 21C18.2665 21 17.25 19.9835 17.25 18.75V5.25Z" fill="white"/>
</g>
<defs>
<clipPath id="clip0_141_36">
<rect width="24" height="24" fill="white"/>
</clipPath>
</defs>
</svg>
