<svg width="24" height="24" viewBox="0 0 24 24" fill="none" xmlns="http://www.w3.org/2000/svg">
<path d="M20.5865 7.63468V8.80961H3.60507V7.63468C3.60507 6.07559 4.85215 4.82856 6.4112 4.82856H6.91529V4.08461C6.91529 3.82038 7.13079 3.60489 7.39501 3.60489C7.65924 3.60489 7.87473 3.82039 7.87473 4.08461V4.82856H16.2943V4.08461C16.2943 3.82038 16.5098 3.60489 16.774 3.60489C17.0382 3.60489 17.2537 3.82039 17.2537 4.08461V4.82856H17.7578C19.3169 4.82856 20.564 6.07564 20.564 7.63468H20.5865Z" fill="white"/>
<path d="M3.60532 9.79343H20.5632V17.8287C20.5632 19.3878 19.3161 20.6349 17.7571 20.6349H6.43495C4.87586 20.6349 3.62882 19.3878 3.62882 17.8287V9.79343H3.60532Z" fill="white"/>
</svg>
