<svg width="24" height="24" viewBox="0 0 24 24" fill="none" xmlns="http://www.w3.org/2000/svg">
<path fill-rule="evenodd" clip-rule="evenodd" d="M10.6182 2.57143C9.85461 2.57143 9.23603 3.22782 9.23603 4.03809V4.37939C9.23603 5.50803 8.08371 6.21354 7.16276 5.64881L6.88431 5.47857C6.2233 5.07343 5.37796 5.31406 4.99616 6.01547L3.61399 8.55595C3.23219 9.25737 3.45895 10.1544 4.11996 10.5595L4.39841 10.7298C5.31936 11.2945 5.31936 12.7055 4.39841 13.2702L4.11996 13.4405C3.45895 13.8456 3.23219 14.7426 3.61399 15.444L4.99616 17.9845C5.37796 18.6859 6.2233 18.9266 6.88431 18.5214L7.16276 18.3512C8.08371 17.7865 9.23603 18.492 9.23603 19.6206V19.9619C9.23603 20.7722 9.85461 21.4286 10.6182 21.4286H13.3826C14.1454 21.4286 14.7647 20.7722 14.7647 19.9619V19.6214C14.7647 18.492 15.9163 17.7865 16.838 18.3512L17.1157 18.5214C17.7767 18.9266 18.622 18.6859 19.0038 17.9845L20.386 15.444C20.7678 14.7426 20.541 13.8456 19.88 13.4405L19.6024 13.2702C18.6806 12.7055 18.6806 11.2945 19.6024 10.7298L19.88 10.5595C20.541 10.1544 20.7678 9.25737 20.386 8.55595L19.0038 6.01547C18.622 5.31405 17.7767 5.07343 17.1157 5.47857L16.838 5.64881C15.9163 6.21354 14.7647 5.50803 14.7647 4.37857V4.03809C14.7647 3.22782 14.1454 2.57143 13.3826 2.57143H10.6182ZM12.0058 15.5619C13.86 15.5619 15.3625 13.9676 15.3625 12C15.3625 10.0324 13.86 8.43809 12.0058 8.43809C10.1516 8.43809 8.64906 10.0324 8.64906 12C8.64906 13.9676 10.1516 15.5619 12.0058 15.5619Z" fill="white"/>
</svg>
